<?xml version="1.0" encoding="UTF-8"?>
<svg id="Layer_2" xmlns="http://www.w3.org/2000/svg" viewBox="0 0 82.41 19.47">
<g id="Layer_1-2">
<path d="m.51,8.67c-.4-.21-.53-.72-.31-1.11l.43-.75c.82.71,1.85.84,2.64.84,1.03,0,1.58-.4,1.58-1,0-.7-.97-.98-1.76-1.2-1.48-.41-3.09-.94-3.09-2.76C0,1.11,1.2.1,3.27.1c.77,0,1.54.11,2.28.41.44.18.62.7.41,1.12h0c-.19.36-.62.52-1,.38-.6-.22-1.19-.29-1.69-.29-.89,0-1.45.35-1.45.89,0,.64.85.89,1.69,1.13,1.54.43,3.17.97,3.17,2.79,0,1.63-1.19,2.73-3.41,2.73-.89,0-1.87-.13-2.76-.6Z" fill="#FFFFFF" stroke-width="2"/>
<path d="m7.51,4.69C7.51,1.96,9.2.1,12.06.1s4.55,1.86,4.55,4.58-1.69,4.58-4.55,4.58-4.55-1.87-4.55-4.58Zm7.21,0c0-1.77-.91-2.94-2.66-2.94s-2.66,1.16-2.66,2.94.91,2.94,2.66,2.94,2.66-1.16,2.66-2.94Z" fill="#FFFFFF" stroke-width="2"/>
<path d="m17.81.22h.98c.18,0,.36.06.51.16l2.9,2.01c.6.41,1.41-.01,1.41-.74v-.53c0-.5.4-.9.9-.9h0c.5,0,.9.4.9.9v7.08c0,.5-.4.9-.9.9h0c-.5,0-.9-.4-.9-.9v-2.28c0-.3-.14-.57-.39-.74l-2.2-1.52c-.6-.41-1.41.01-1.41.74v3.8c0,.5-.4.9-.9.9h0c-.5,0-.9-.4-.9-.9V.22Z" fill="#FFFFFF" stroke-width="2"/>
<path d="m28.07.25h0c.5,0,.9.4.9.9v7.08c0,.5-.4.9-.9.9h0c-.5,0-.9-.4-.9-.9V1.15c0-.5.4-.9.9-.9Z" fill="#FFFFFF" stroke-width="2"/>
<path d="m10.23,18.87c-.4-.21-.53-.72-.31-1.11l.43-.75c.82.71,1.85.84,2.64.84,1.03,0,1.58-.4,1.58-1,0-.7-.97-.98-1.76-1.2-1.48-.41-3.09-.94-3.09-2.76,0-1.58,1.2-2.59,3.27-2.59.77,0,1.54.11,2.28.41.44.18.62.7.41,1.12h0c-.19.36-.62.52-1,.38-.6-.22-1.19-.29-1.69-.29-.89,0-1.45.35-1.45.89,0,.64.85.89,1.69,1.13,1.54.43,3.17.97,3.17,2.79,0,1.63-1.19,2.73-3.41,2.73-.89,0-1.87-.13-2.76-.6Z" fill="#FFFFFF" stroke-width="2"/>
<path d="m18.71,10.45h0c.5,0,.9.4.9.9v1.75c0,.5.4.9.9.9h2.2c.5,0,.9-.4.9-.9v-1.75c0-.5.4-.9.9-.9h0c.5,0,.9.4.9.9v7.08c0,.5-.4.9-.9.9h0c-.5,0-.9-.4-.9-.9v-1.91c0-.5-.4-.9-.9-.9h-2.2c-.5,0-.9.4-.9.9v1.91c0,.5-.4.9-.9.9h0c-.5,0-.9-.4-.9-.9v-7.08c0-.5.4-.9.9-.9Z" fill="#FFFFFF" stroke-width="2"/>
<path d="m26.7,14.88c0-2.72,1.69-4.58,4.55-4.58s4.55,1.86,4.55,4.58-1.69,4.58-4.55,4.58-4.55-1.87-4.55-4.58Zm7.21,0c0-1.77-.91-2.94-2.66-2.94s-2.66,1.16-2.66,2.94.91,2.94,2.66,2.94,2.66-1.16,2.66-2.94Z" fill="#FFFFFF" stroke-width="2"/>
<path d="m37.02,15.83v-4.53c0-.47.38-.86.86-.86h.08c.47,0,.86.38.86.86v4.6c0,1.13.46,1.92,1.51,1.92s1.56-.73,1.56-1.92v-4.6c0-.47.38-.86.86-.86h0c.47,0,.86.38.86.86v4.6c0,1.19.54,1.92,1.56,1.92s1.51-.79,1.51-1.92v-4.6c0-.47.38-.86.86-.86h.08c.47,0,.86.38.86.86v4.53c0,2.25-1,3.63-3.13,3.63-.87,0-1.53-.24-2.04-.71-.3-.27-.79-.27-1.1,0-.51.47-1.18.71-2.04.71-2.15,0-3.14-1.38-3.14-3.63Z" fill="#FFFFFF" stroke-width="2"/>
<path d="m49.71,14.88c0-2.73,1.68-4.58,4.51-4.58.78,0,1.63.19,2.32.54.4.2.53.72.31,1.12h0c-.22.38-.69.5-1.09.32-.49-.23-.97-.32-1.51-.32-1.64,0-2.66,1.15-2.66,2.94s1,2.94,2.66,2.94c.58,0,1.18-.18,1.7-.52.37-.24.86-.18,1.12.18l.03.04c.27.37.19.9-.19,1.16-.77.51-1.73.78-2.82.78-2.75,0-4.39-1.86-4.39-4.58Z" fill="#FFFFFF" stroke-width="2"/>
<path d="m58.74,14.31c0-2.52,1.43-4.01,3.87-4.01s3.85,1.49,3.85,4.01v4.11c0,.5-.4.9-.9.9h0c-.5,0-.9-.4-.9-.9v-.59c0-.5-.4-.9-.9-.9h-2.33c-.5,0-.9.4-.9.9v.59c0,.5-.4.9-.9.9h0c-.5,0-.9-.4-.9-.9v-4.11Zm5.92.98v-.98c0-1.49-.73-2.36-2.05-2.36s-2.07.88-2.07,2.36v.98h4.13Z" fill="#FFFFFF" stroke-width="2"/>
<path d="m68.41,18.87c-.4-.21-.53-.72-.31-1.11l.43-.75c.82.71,1.85.84,2.64.84,1.03,0,1.58-.4,1.58-1,0-.7-.97-.98-1.76-1.2-1.48-.41-3.09-.94-3.09-2.76,0-1.58,1.2-2.59,3.27-2.59.77,0,1.54.11,2.28.41.44.18.62.7.41,1.12h0c-.19.36-.62.52-1,.38-.6-.22-1.19-.29-1.69-.29-.89,0-1.45.35-1.45.89,0,.64.85.89,1.69,1.13,1.54.43,3.17.97,3.17,2.79,0,1.63-1.19,2.73-3.41,2.73-.89,0-1.87-.13-2.76-.6Z" fill="#FFFFFF" stroke-width="2"/>
<path d="m76.79,10.45h4.65c.44,0,.8.36.8.8v.04c0,.44-.36.8-.8.8h-2.85c-.44,0-.8.36-.8.8v.3c0,.44.36.8.8.8h2.54c.44,0,.8.36.8.8h0c0,.44-.36.8-.8.8h-2.54c-.44,0-.8.36-.8.8v.47c0,.44.36.8.8.8h3.02c.44,0,.8.36.8.8v.04c0,.44-.36.8-.8.8h-4.82c-.44,0-.8-.36-.8-.8v-7.27c0-.44.36-.8.8-.8Z" fill="#FFFFFF" stroke-width="2"/>
<path d="m53.6,0l.03.5c1.25.03,1.52,1.55,1.78,3.87.24,2.15.49,3.68,1.44,3.68h.12l.11-.06c.38-.2.58-.8.87-2.07.37-1.62.73-2.77,1.91-2.8,1.08,0,1.49.89,1.81,1.81.25.7.44,1.25,1.01,1.25.76,0,1.01-.97,1.29-2.1.4-1.54.8-2.72,2.07-2.75,1.37,0,1.61,1.56,1.78,3.58.13,1.56.27,3.17,1.25,3.17.77-.01,1.2-1.13,1.82-3.46.58-2.2,1.09-3.76,2.28-3.76h.06c1.08.04,1.42,1.29,1.78,3.05.35,1.71.57,2.3.96,2.49l.11.06h.12c.66,0,.83-.31,1.09-.9.27-.62.61-1.39,1.89-1.39h1.96c.23,0,.4.17.4.38,0,.09-.05.16-.08.19-.06.06-.14.09-.21.09l-2.06.02c-.85,0-1.03.41-1.28.99-.25.58-.57,1.31-1.71,1.31s-1.5-1.34-1.85-3.09c-.34-1.69-.55-2.24-.92-2.45l-.12-.07h-.13c-.6,0-.97.73-1.64,3.26-.63,2.38-1.14,3.94-2.5,3.96-1.46,0-1.72-1.72-1.9-3.79-.18-2.09-.36-2.97-1.08-2.97-.86.01-1.14,1.1-1.43,2.24-.38,1.48-.76,2.61-1.95,2.61-.97,0-1.31-.74-1.65-1.7-.29-.84-.51-1.35-1.2-1.36-.66.01-.91.91-1.23,2.27-.36,1.55-.69,2.66-1.76,2.66-1.51,0-1.83-1.85-2.11-4.28-.25-2.19-.45-2.94-.87-3.2l-.23-.14-.24.11c-.4.19-.64.76-1.03,2.48-.38,1.69-.73,2.88-1.76,2.88-1.1,0-1.41-.89-1.66-1.96-.19-.79-.34-1.42-.97-1.42h-.04s0,0,0,0c-.73.03-.96,1.01-1.22,2.05-.36,1.47-.73,2.6-1.98,2.62-1.17,0-1.6-1.29-2.05-2.97-.34-1.3-.69-2.65-1.61-2.66-.92,0-1.26.89-1.84,2.36-.4,1.03-.85,2.17-1.66,3.03l-.44-.52c.69-.75,1.08-1.77,1.48-2.78.63-1.62,1.17-2.76,2.43-2.76h.06c1.29.02,1.75,1.38,2.22,3.17.39,1.49.7,2.47,1.41,2.47.8-.01,1.04-1.03,1.31-2.11.35-1.42.7-2.52,1.84-2.56h.08c1.08,0,1.37.86,1.63,1.94.19.8.34,1.44,1,1.44h.18l.14-.11c.26-.21.43-.69.79-2.25.39-1.73.78-3.04,1.89-3.04v-.5m0,0c-1.6,0-2.03,1.9-2.38,3.43-.14.63-.41,1.81-.61,1.97-.19,0-.29-.1-.52-1.06-.21-.87-.54-2.32-2.12-2.32-.03,0-.07,0-.1,0-1.61.06-2.02,1.73-2.31,2.94-.24,1.01-.45,1.72-.83,1.72h0c-.36,0-.71-1.31-.92-2.1-.41-1.56-.92-3.51-2.69-3.53-.02,0-.04,0-.07,0-1.71,0-2.35,1.66-2.91,3.11-.42,1.07-.85,2.17-1.63,2.86-.03.02-.03.07,0,.09l.98,1.18s.04.03.06.03c.02,0,.04,0,.05-.02,1.11-.96,1.64-2.32,2.11-3.53.54-1.37.81-2.04,1.37-2.04,0,0,.02,0,.02,0,.5,0,.85,1.32,1.1,2.28.39,1.49.88,3.35,2.53,3.35h.03c1.71-.02,2.12-1.75,2.43-3,.18-.74.4-1.65.75-1.67.01,0,.02,0,.03,0,.16,0,.26.1.49,1.04.21.88.56,2.34,2.15,2.34,1.5,0,1.9-1.74,2.25-3.27.15-.65.45-1.99.75-2.13.34.21.54,1.92.64,2.83.24,2.1.53,4.72,2.6,4.72,1.55,0,1.94-1.69,2.25-3.04.15-.66.43-1.88.75-1.88.28,0,.4.12.72,1.03.29.81.72,2.03,2.12,2.03,1.67,0,2.11-1.72,2.43-2.98.28-1.09.51-1.86.96-1.86h0c.36,0,.51,1.69.58,2.51.15,1.79.36,4.25,2.4,4.25.01,0,.03,0,.04,0,1.8-.03,2.38-2.22,2.94-4.34.21-.79.76-2.89,1.16-2.89h0c.28.16.54,1.44.68,2.12.32,1.56.71,3.49,2.34,3.49,1.46,0,1.9-1.01,2.17-1.61.24-.54.3-.69.82-.69l2.06-.02c.43,0,.8-.35.79-.78h0c0-.49-.41-.86-.9-.86,0,0,0,0-.01,0h-1.95c-1.61,0-2.07,1.05-2.35,1.69-.25.56-.29.6-.63.6-.29-.15-.57-1.5-.7-2.15-.32-1.59-.69-3.4-2.25-3.45-.03,0-.05,0-.08,0-1.67,0-2.23,2.11-2.77,4.13-.28,1.08-.81,3.08-1.35,3.09h0c-.51,0-.65-1.63-.74-2.71-.15-1.82-.35-4.04-2.28-4.04-1.76.03-2.22,1.82-2.55,3.12-.25.98-.47,1.73-.81,1.73-.16,0-.27-.14-.54-.92-.28-.8-.79-2.14-2.28-2.14-.02,0-.03,0-.05,0-1.62.03-2.02,1.78-2.35,3.18-.13.56-.37,1.61-.62,1.74-.58,0-.8-2.02-.94-3.23C55.67,2.21,55.43.04,53.64,0c-.01,0-.03,0-.04,0h0Z" fill="#FFFFFF" stroke-width="2"/>
<path d="m35.8,7.52c-.23.06-.47.11-.72.11-1.67,0-2.66-1.18-2.66-2.94s1.02-2.94,2.66-2.94c.53,0,1.02.1,1.51.32.4.19.87.07,1.09-.32h0c.22-.39.09-.91-.31-1.12-.69-.35-1.54-.54-2.32-.54-2.83,0-4.51,1.85-4.51,4.58s1.64,4.58,4.39,4.58c.73,0,1.38-.15,1.97-.39l-1.09-1.36Z" fill="#FFFFFF" stroke-width="2"/></g></svg>